<?xml version="1.0" standalone="no"?>
<!DOCTYPE svg PUBLIC "-//W3C//DTD SVG 20010904//EN"
 "http://www.w3.org/TR/2001/REC-SVG-20010904/DTD/svg10.dtd">
<svg version="1.0" xmlns="http://www.w3.org/2000/svg"
 width="838.000000pt" height="143.000000pt" viewBox="0 0 838.000000 143.000000"
 preserveAspectRatio="xMidYMid meet">

<g transform="translate(0.000000,143.000000) scale(0.100000,-0.100000)"
fill="#000000" stroke="none">
<path d="M1114 1360 c-89 -36 -63 -190 31 -190 50 0 74 15 91 57 20 46 10 86
-28 118 -30 26 -57 30 -94 15z"/>
<path d="M2207 1346 c-93 -20 -122 -37 -77 -44 43 -7 45 -25 45 -457 0 -225
-3 -422 -7 -437 -5 -17 -19 -30 -38 -36 -16 -6 -30 -13 -30 -16 0 -4 70 -6
155 -6 97 0 155 4 155 10 0 6 -8 10 -18 10 -11 0 -27 9 -38 21 -17 19 -19 38
-19 218 0 108 3 208 8 224 10 37 72 104 118 128 24 12 59 19 92 19 45 0 58 -4
78 -26 24 -25 24 -27 27 -271 3 -270 -1 -295 -49 -312 -16 -5 -29 -12 -29 -15
0 -4 72 -6 160 -6 100 0 160 4 160 10 0 6 -6 10 -14 10 -8 0 -24 9 -37 19 -24
19 -24 21 -29 288 -5 247 -7 272 -27 316 -18 39 -30 51 -69 69 -98 43 -243 6
-344 -88 l-50 -47 0 222 c0 171 -3 221 -12 220 -7 -1 -57 -11 -111 -23z"/>
<path d="M6548 1287 l-58 -32 6 -46 c11 -82 -37 -170 -106 -199 -41 -17 -28
-30 31 -30 l49 0 0 -243 c0 -273 8 -322 60 -372 38 -37 118 -45 200 -21 55 16
55 16 77 78 13 34 21 64 18 66 -3 3 -15 -4 -28 -15 -33 -31 -62 -43 -101 -43
-65 0 -70 17 -74 302 l-4 249 68 -2 69 -3 18 48 c17 46 17 48 0 41 -10 -4 -48
-10 -85 -12 l-68 -6 0 137 c0 75 -3 136 -7 135 -5 0 -34 -15 -65 -32z"/>
<path d="M60 1301 c0 -5 14 -12 30 -16 20 -4 36 -18 48 -38 15 -29 17 -71 17
-417 0 -346 -2 -388 -17 -417 -12 -20 -28 -34 -48 -38 -67 -15 -23 -25 110
-25 77 0 140 4 140 8 0 4 -13 13 -29 19 -62 23 -62 22 -59 431 l3 370 243
-226 244 -227 -4 -145 c-4 -159 -12 -185 -59 -202 -57 -20 -27 -28 106 -28 74
0 135 4 135 8 0 4 -14 13 -30 19 -57 22 -60 41 -60 453 0 412 3 431 60 453 16
6 30 15 30 19 0 4 -58 8 -130 8 -135 0 -158 -8 -95 -34 21 -9 37 -24 40 -38 3
-13 4 -83 3 -156 l-3 -133 -168 156 c-147 138 -166 159 -161 181 l6 24 -176 0
c-101 0 -176 -4 -176 -9z"/>
<path d="M3790 1302 c0 -5 15 -15 33 -23 53 -23 56 -44 56 -449 0 -405 -3
-426 -56 -449 -18 -8 -33 -18 -33 -23 0 -4 79 -8 175 -8 96 0 175 4 175 8 0 4
-15 13 -33 20 -52 19 -57 42 -57 246 l0 184 69 21 c38 12 73 21 78 21 16 0
134 -176 178 -265 24 -49 47 -109 50 -132 6 -37 3 -45 -19 -66 -14 -14 -26
-27 -26 -31 0 -3 68 -6 150 -6 83 0 150 3 150 8 0 4 -15 19 -33 34 -26 20 -44
52 -76 135 -47 117 -109 232 -179 331 -24 35 -43 64 -41 66 2 1 34 24 71 49
86 61 118 112 118 190 0 48 -4 61 -30 90 -16 18 -47 39 -68 45 -46 14 -652 17
-652 4z m513 -81 c46 -18 67 -50 67 -103 0 -41 -5 -54 -37 -89 -38 -42 -113
-85 -220 -125 l-63 -24 0 160 c0 195 -3 190 137 190 50 0 103 -4 116 -9z"/>
<path d="M1620 1076 c-144 -38 -232 -164 -234 -336 -1 -136 38 -227 133 -313
91 -81 193 -106 375 -92 l96 7 34 106 c19 59 33 108 31 110 -2 2 -30 -23 -62
-55 -63 -64 -106 -83 -189 -83 -53 0 -125 28 -162 63 -91 84 -114 313 -44 427
38 61 91 90 167 90 77 0 126 -27 179 -98 21 -29 41 -50 43 -48 2 2 -6 55 -18
117 l-22 114 -141 1 c-82 1 -160 -3 -186 -10z"/>
<path d="M3247 1080 c-84 -22 -177 -88 -223 -161 -67 -107 -70 -284 -6 -388
31 -50 108 -123 157 -148 99 -51 186 -62 381 -47 l82 7 36 125 c19 69 33 128
29 131 -3 3 -8 0 -10 -7 -14 -39 -76 -111 -118 -137 -45 -28 -56 -30 -139 -30
-74 0 -99 4 -132 22 -70 38 -130 121 -148 208 l-7 30 265 74 c146 41 270 77
275 80 16 10 -40 112 -86 158 -62 62 -119 85 -228 89 -49 2 -107 -1 -128 -6z
m181 -90 c27 -17 92 -101 92 -120 0 -5 -129 -43 -364 -108 -18 -5 -18 -1 -12
48 17 125 90 200 196 200 37 0 65 -6 88 -20z"/>
<path d="M4945 1069 c-44 -11 -97 -18 -117 -16 -21 3 -38 1 -38 -4 0 -4 -7
-56 -16 -115 -8 -58 -13 -108 -11 -111 3 -2 21 20 42 51 59 89 150 136 265
136 77 0 121 -24 138 -75 7 -22 12 -53 10 -69 -3 -28 -5 -30 -108 -52 -261
-58 -382 -137 -405 -265 -15 -82 39 -174 120 -205 34 -12 66 -15 137 -12 104
5 157 25 218 84 l35 34 18 -50 18 -50 112 1 c91 0 108 2 93 12 -81 51 -85 66
-85 375 -1 237 -4 254 -53 299 -58 53 -227 68 -373 32z m269 -391 c-4 -51 -11
-104 -16 -118 -16 -43 -57 -89 -98 -110 -117 -60 -230 -18 -230 84 0 95 92
169 270 217 36 10 69 18 73 18 5 1 5 -41 1 -91z"/>
<path d="M7157 1080 c-170 -43 -287 -194 -287 -371 0 -115 62 -243 147 -302
84 -58 130 -72 243 -72 133 0 195 23 279 101 86 79 116 150 116 274 0 88 -3
101 -33 162 -41 83 -120 158 -200 189 -64 25 -202 34 -265 19z m189 -79 c95
-43 139 -140 139 -306 0 -98 -3 -116 -27 -167 -46 -98 -135 -143 -237 -118
-64 15 -114 58 -147 126 -36 74 -46 229 -20 317 39 135 172 202 292 148z"/>
<path d="M8082 1064 c-29 -14 -67 -44 -86 -66 l-34 -39 -17 56 -16 57 -81 -7
c-44 -4 -92 -11 -106 -15 l-27 -7 27 -11 c15 -6 35 -23 45 -39 16 -24 18 -54
18 -293 0 -146 -3 -277 -7 -292 -5 -17 -19 -30 -38 -36 -16 -6 -30 -13 -30
-16 0 -4 70 -6 155 -6 97 0 155 4 155 10 0 6 -8 10 -18 10 -11 0 -27 9 -38 21
-17 19 -19 39 -19 228 0 191 2 210 22 253 30 66 72 90 143 85 30 -2 62 -7 71
-11 12 -5 18 6 31 64 8 38 12 72 10 75 -16 16 -112 3 -160 -21z"/>
<path d="M1108 1048 c-54 -11 -98 -24 -98 -29 0 -5 6 -9 14 -9 8 0 24 -12 35
-26 20 -26 21 -39 21 -293 0 -283 -5 -313 -48 -319 -12 -2 -22 -8 -22 -13 0
-5 66 -9 155 -9 85 0 155 2 155 6 0 3 -12 9 -28 15 -55 19 -56 26 -60 377 -3
236 -7 322 -15 321 -7 -1 -56 -10 -109 -21z"/>
<path d="M5510 1060 c0 -5 6 -10 14 -10 8 0 28 -11 43 -24 l28 -24 0 -445 c0
-423 -1 -446 -19 -466 -11 -12 -27 -21 -38 -21 -10 0 -18 -4 -18 -10 0 -6 58
-10 155 -10 144 0 191 9 129 24 -39 10 -54 59 -54 176 l0 100 108 0 c317 1
458 109 456 350 -2 187 -107 322 -282 359 -68 14 -522 15 -522 1z m475 -89
c108 -48 157 -131 157 -266 0 -99 -26 -168 -82 -219 -48 -43 -99 -60 -182 -61
-61 0 -70 3 -95 28 l-28 27 -3 262 -3 261 93 -5 c66 -4 108 -11 143 -27z"/>
</g>
</svg>
